<?xml version="1.0" standalone="no"?>
<!DOCTYPE svg PUBLIC "-//W3C//DTD SVG 20010904//EN"
 "http://www.w3.org/TR/2001/REC-SVG-20010904/DTD/svg10.dtd">
<svg version="1.0" xmlns="http://www.w3.org/2000/svg"
 width="3509.000000pt" height="3509.000000pt" viewBox="0 0 3509.000000 3509.000000"
 preserveAspectRatio="xMidYMid meet">
<metadata>
Created by potrace 1.14, written by Peter Selinger 2001-2017
</metadata>
<g transform="translate(0.000000,3509.000000) scale(0.100000,-0.100000)"
fill="#000000" stroke="none">
<path d="M21320 24185 c-7 -9 -60 -118 -170 -350 -26 -55 -88 -183 -137 -285
-124 -255 -338 -699 -535 -1110 -33 -69 -94 -195 -135 -280 -42 -85 -101 -209
-133 -275 -32 -66 -90 -187 -130 -270 -40 -82 -103 -213 -140 -290 -77 -160
-174 -362 -265 -550 -35 -71 -91 -188 -125 -260 -35 -71 -97 -200 -138 -285
-41 -85 -96 -200 -122 -255 -26 -55 -86 -179 -132 -275 -47 -96 -108 -222
-136 -280 -78 -164 -187 -389 -274 -570 -44 -91 -97 -201 -118 -245 -21 -44
-77 -161 -125 -260 -48 -99 -113 -234 -145 -300 -31 -66 -87 -181 -123 -255
-35 -74 -100 -207 -142 -295 -43 -88 -103 -214 -135 -280 -173 -360 -283 -589
-395 -820 -60 -123 -178 -369 -265 -550 -32 -66 -92 -192 -135 -280 -43 -88
-99 -205 -125 -260 -59 -124 -163 -340 -265 -550 -87 -179 -181 -376 -260
-540 -29 -60 -85 -176 -124 -257 -88 -184 -190 -395 -269 -558 -33 -69 -58
-127 -56 -129 2 -2 470 -4 1039 -4 1047 0 1065 1 1065 34 0 5 32 75 71 156 39
82 95 198 125 260 30 62 54 117 54 122 0 6 5 11 10 11 6 0 10 5 10 11 0 7 29
71 64 143 69 142 177 366 261 541 29 61 85 178 125 260 40 83 102 211 137 285
36 74 101 209 145 300 44 91 105 217 135 280 31 63 87 180 125 260 39 80 92
190 118 245 26 55 94 195 150 310 56 116 118 244 137 285 20 41 71 147 113
235 43 88 106 219 140 290 34 72 94 195 132 275 39 80 96 199 128 265 32 66
90 188 130 270 40 83 98 204 130 270 32 66 93 192 135 280 84 172 171 354 270
560 85 177 283 587 403 835 41 85 100 209 132 275 32 66 89 185 127 265 39 80
95 197 126 260 30 63 90 187 132 275 43 88 106 219 140 290 34 72 99 204 143
295 43 91 95 199 115 240 19 41 76 161 127 265 51 105 114 236 141 292 27 56
85 177 130 270 45 92 107 222 139 288 32 66 92 192 135 280 42 88 101 210 130
270 99 206 182 380 229 474 25 52 44 97 41 99 -10 10 -2077 7 -2085 -3z"/>
<path d="M16867 21693 c-36 -76 -102 -214 -147 -307 -44 -92 -113 -234 -152
-315 -39 -80 -99 -204 -133 -276 -34 -71 -97 -202 -140 -290 -42 -88 -102
-212 -132 -275 -31 -63 -91 -189 -135 -280 -44 -91 -105 -217 -136 -280 -30
-63 -88 -185 -130 -270 -41 -85 -94 -195 -117 -245 -41 -86 -101 -212 -270
-560 -43 -88 -104 -216 -137 -285 -69 -144 -142 -294 -258 -535 -45 -93 -106
-219 -135 -280 -29 -60 -90 -186 -135 -280 -45 -93 -106 -219 -135 -280 -135
-280 -246 -511 -385 -800 -40 -82 -99 -206 -132 -275 -33 -69 -94 -195 -135
-280 -124 -254 -321 -663 -403 -835 -29 -60 -85 -177 -125 -260 -84 -172 -185
-383 -275 -570 -34 -71 -88 -184 -120 -250 -32 -66 -87 -181 -123 -255 -36
-74 -102 -211 -147 -305 -45 -93 -106 -219 -135 -280 -29 -60 -87 -182 -130
-270 -42 -88 -101 -209 -130 -270 -106 -223 -175 -365 -284 -589 -61 -125
-111 -229 -111 -231 0 -4 -239 -498 -256 -527 -8 -16 -14 -29 -12 -29 10 -4
2081 -3 2087 1 4 3 29 50 56 105 26 55 76 159 110 230 34 72 95 198 135 280
40 83 100 209 135 280 34 72 97 202 140 290 42 88 99 205 125 260 26 55 85
177 130 270 78 161 128 265 260 540 32 66 92 192 135 280 187 388 286 592 398
825 30 63 86 180 125 260 66 138 137 285 277 575 34 72 97 202 140 290 43 88
99 205 125 260 44 94 74 156 267 555 42 85 104 214 138 285 34 72 92 191 127
265 36 74 86 178 111 230 25 52 99 207 166 344 67 136 121 250 121 251 0 2 51
108 114 236 62 129 131 272 154 319 49 105 203 424 395 820 38 80 93 195 122
255 29 61 87 182 130 270 42 88 103 214 135 280 64 135 152 317 260 540 40 83
101 209 135 280 35 72 96 200 137 285 129 267 194 401 256 530 33 69 92 191
131 272 39 81 71 150 71 153 0 3 -470 5 -1043 5 l-1044 0 -66 -137z"/>
</g>
</svg>
